<svg width="102" height="102" viewBox="0 0 102 102" fill="none" xmlns="http://www.w3.org/2000/svg">
<path d="M90.6593 36.7785L101.416 26.0215C101.86 25.5787 102.068 24.9522 101.98 24.332C101.892 23.7118 101.516 23.1686 100.967 22.8667L88.0344 15.7656C87.0702 15.2364 85.8594 15.5889 85.3294 16.5531C84.8002 17.5181 85.152 18.729 86.1169 19.2582L96.7222 25.0814L87.4904 34.3124L54.2871 16.08L63.5181 6.849L72.8494 11.9734C73.8136 12.5026 75.0253 12.1509 75.5544 11.1859C76.0844 10.2217 75.7319 9.01006 74.7669 8.48089L64.125 2.63662C63.3484 2.21016 62.3834 2.34791 61.7578 2.97436L51 13.7322L40.2421 2.97436C39.6157 2.34791 38.6507 2.21094 37.8749 2.63662L1.0334 22.8667C0.483996 23.1686 0.108127 23.711 0.0201901 24.332C-0.0685244 24.9522 0.140033 25.5787 0.583606 26.0215L11.3406 36.7785L0.583606 47.5348C0.140033 47.9783 -0.0685244 48.604 0.0201901 49.225C0.108127 49.8452 0.483996 50.3884 1.0334 50.6896L12.1663 56.8031V77.237C12.1663 77.9646 12.5624 78.6339 13.1998 78.9841L50.0412 99.2133C50.34 99.3775 50.67 99.4593 51 99.4593C51.3299 99.4593 51.6599 99.3775 51.9587 99.2133L88.8002 78.9841C89.4375 78.6339 89.8336 77.9646 89.8336 77.237V56.8031L100.967 50.6904C101.516 50.3884 101.892 49.8452 101.98 49.225C102.068 48.6048 101.86 47.9783 101.416 47.5355L90.6593 36.7785ZM51 54.7347L18.2977 36.7777L51 18.82L83.7022 36.7777L51 54.7347ZM38.4826 6.849L47.7128 16.08L14.5095 34.3124L5.27848 25.0814L38.4826 6.849ZM14.511 39.2438L47.7144 57.4762L38.4826 66.708L5.27848 48.4756L14.511 39.2438ZM85.8492 76.0588L52.9921 94.1006V73.7359C52.9921 72.6355 52.1003 71.7437 51 71.7437C49.8996 71.7437 49.0078 72.6355 49.0078 73.7359V94.1006L16.1507 76.0588V58.9914L37.8749 70.9204C38.176 71.0854 38.506 71.1663 38.8328 71.1663C39.3488 71.1663 39.8593 70.9655 40.2421 70.5827L51 59.8248L61.7578 70.5827C62.1406 70.9663 62.6511 71.1663 63.1671 71.1663C63.4939 71.1663 63.8239 71.0854 64.125 70.9204L85.8492 58.9914V76.0588ZM63.5181 66.708L54.2863 57.4755L87.4897 39.2438L96.7222 48.4748L63.5181 66.708Z" fill="#999999"/>
<path d="M80.6438 15.9727C81.1675 15.9727 81.6796 15.7594 82.0523 15.3882C82.4228 15.0178 82.636 14.5042 82.636 13.9805C82.636 13.456 82.4228 12.9424 82.0523 12.5719C81.6819 12.2007 81.1675 11.9883 80.6438 11.9883C80.1177 11.9883 79.6057 12.2007 79.2353 12.5719C78.8625 12.9424 78.6516 13.456 78.6516 13.9805C78.6516 14.5042 78.8625 15.0178 79.2353 15.3882C79.6057 15.7594 80.1201 15.9727 80.6438 15.9727Z" fill="#999999"/>
<path d="M51 65.1299C50.4763 65.1299 49.9619 65.3423 49.5915 65.7135C49.221 66.0855 49.0078 66.5976 49.0078 67.1221C49.0078 67.6474 49.221 68.1594 49.5915 68.5322C49.9619 68.9026 50.4763 69.1143 51 69.1143C51.5237 69.1143 52.0381 68.9026 52.4085 68.5322C52.779 68.1594 52.9922 67.6474 52.9922 67.1221C52.9922 66.5976 52.779 66.0855 52.4085 65.7135C52.0381 65.3423 51.5237 65.1299 51 65.1299Z" fill="#999999"/>
</svg>
